<mxfile host="65bd71144e">
    <diagram name="Page-1" id="ad52d381-51e7-2e0d-a935-2d0ddd2fd229">
        <mxGraphModel dx="2542" dy="1463" grid="1" gridSize="10" guides="1" tooltips="1" connect="1" arrows="1" fold="1" page="1" pageScale="1" pageWidth="1100" pageHeight="850" background="none" math="0" shadow="0">
            <root>
                <mxCell id="0"/>
                <mxCell id="1" parent="0"/>
                <mxCell id="bxaMljr0pyz9ZM-5e5pa-3" value="" style="shape=table;html=1;whiteSpace=wrap;startSize=0;container=1;collapsible=0;childLayout=tableLayout;" parent="1" vertex="1">
                    <mxGeometry x="240" y="-20" width="120" height="40" as="geometry"/>
                </mxCell>
                <mxCell id="bxaMljr0pyz9ZM-5e5pa-4" value="" style="shape=tableRow;horizontal=0;startSize=0;swimlaneHead=0;swimlaneBody=0;top=0;left=0;bottom=0;right=0;collapsible=0;dropTarget=0;fillColor=none;points=[[0,0.5],[1,0.5]];portConstraint=eastwest;" parent="bxaMljr0pyz9ZM-5e5pa-3" vertex="1">
                    <mxGeometry width="120" height="40" as="geometry"/>
                </mxCell>
                <mxCell id="bxaMljr0pyz9ZM-5e5pa-5" value="U" style="shape=partialRectangle;html=1;whiteSpace=wrap;connectable=0;fillColor=none;top=0;left=0;bottom=0;right=0;overflow=hidden;" parent="bxaMljr0pyz9ZM-5e5pa-4" vertex="1">
                    <mxGeometry width="60" height="40" as="geometry">
                        <mxRectangle width="60" height="40" as="alternateBounds"/>
                    </mxGeometry>
                </mxCell>
                <mxCell id="As_m2-J2Ws3eBye3PTwR-1" value="" style="shape=partialRectangle;html=1;whiteSpace=wrap;connectable=0;fillColor=none;top=0;left=0;bottom=0;right=0;overflow=hidden;" parent="bxaMljr0pyz9ZM-5e5pa-4" vertex="1">
                    <mxGeometry x="60" width="60" height="40" as="geometry">
                        <mxRectangle width="60" height="40" as="alternateBounds"/>
                    </mxGeometry>
                </mxCell>
                <mxCell id="bxaMljr0pyz9ZM-5e5pa-19" value="" style="endArrow=none;html=1;rounded=0;startArrow=none;entryX=0;entryY=0.5;entryDx=0;entryDy=0;" parent="1" target="bxaMljr0pyz9ZM-5e5pa-4" edge="1">
                    <mxGeometry width="50" height="50" relative="1" as="geometry">
                        <mxPoint x="130" as="sourcePoint"/>
                        <mxPoint x="240" as="targetPoint"/>
                    </mxGeometry>
                </mxCell>
                <mxCell id="bxaMljr0pyz9ZM-5e5pa-20" value="User" style="ellipse;whiteSpace=wrap;html=1;" parent="1" vertex="1">
                    <mxGeometry x="-20" y="-50" width="150" height="100" as="geometry"/>
                </mxCell>
                <mxCell id="bxaMljr0pyz9ZM-5e5pa-22" value="" style="endArrow=none;html=1;rounded=0;entryX=0;entryY=0.5;entryDx=0;entryDy=0;" parent="1" target="bxaMljr0pyz9ZM-5e5pa-44" edge="1">
                    <mxGeometry width="50" height="50" relative="1" as="geometry">
                        <mxPoint x="840" as="sourcePoint"/>
                        <mxPoint x="840" y="-0.2400000000000091" as="targetPoint"/>
                    </mxGeometry>
                </mxCell>
                <mxCell id="bxaMljr0pyz9ZM-5e5pa-24" value="" style="shape=table;html=1;whiteSpace=wrap;startSize=0;container=1;collapsible=0;childLayout=tableLayout;direction=east;flipV=0;flipH=0;" parent="1" vertex="1">
                    <mxGeometry x="60" y="120" width="60" height="80" as="geometry"/>
                </mxCell>
                <mxCell id="bxaMljr0pyz9ZM-5e5pa-25" value="" style="shape=tableRow;horizontal=0;startSize=0;swimlaneHead=0;swimlaneBody=0;top=0;left=0;bottom=0;right=0;collapsible=0;dropTarget=0;fillColor=none;points=[[0,0.5],[1,0.5]];portConstraint=eastwest;" parent="bxaMljr0pyz9ZM-5e5pa-24" vertex="1">
                    <mxGeometry width="60" height="40" as="geometry"/>
                </mxCell>
                <mxCell id="bxaMljr0pyz9ZM-5e5pa-26" value="" style="shape=partialRectangle;html=1;whiteSpace=wrap;connectable=0;fillColor=none;top=0;left=0;bottom=0;right=0;overflow=hidden;" parent="bxaMljr0pyz9ZM-5e5pa-25" vertex="1">
                    <mxGeometry width="60" height="40" as="geometry">
                        <mxRectangle width="60" height="40" as="alternateBounds"/>
                    </mxGeometry>
                </mxCell>
                <mxCell id="bxaMljr0pyz9ZM-5e5pa-28" style="shape=tableRow;horizontal=0;startSize=0;swimlaneHead=0;swimlaneBody=0;top=0;left=0;bottom=0;right=0;collapsible=0;dropTarget=0;fillColor=none;points=[[0,0.5],[1,0.5]];portConstraint=eastwest;" parent="bxaMljr0pyz9ZM-5e5pa-24" vertex="1">
                    <mxGeometry y="40" width="60" height="40" as="geometry"/>
                </mxCell>
                <mxCell id="bxaMljr0pyz9ZM-5e5pa-29" value="S" style="shape=partialRectangle;html=1;whiteSpace=wrap;connectable=0;fillColor=none;top=0;left=0;bottom=0;right=0;overflow=hidden;" parent="bxaMljr0pyz9ZM-5e5pa-28" vertex="1">
                    <mxGeometry width="60" height="40" as="geometry">
                        <mxRectangle width="60" height="40" as="alternateBounds"/>
                    </mxGeometry>
                </mxCell>
                <mxCell id="bxaMljr0pyz9ZM-5e5pa-38" value="" style="shape=table;html=1;whiteSpace=wrap;startSize=0;container=1;collapsible=0;childLayout=tableLayout;direction=east;flipV=0;flipH=0;" parent="1" vertex="1">
                    <mxGeometry x="-20" y="120" width="60" height="80" as="geometry"/>
                </mxCell>
                <mxCell id="bxaMljr0pyz9ZM-5e5pa-39" value="" style="shape=tableRow;horizontal=0;startSize=0;swimlaneHead=0;swimlaneBody=0;top=0;left=0;bottom=0;right=0;collapsible=0;dropTarget=0;fillColor=none;points=[[0,0.5],[1,0.5]];portConstraint=eastwest;" parent="bxaMljr0pyz9ZM-5e5pa-38" vertex="1">
                    <mxGeometry width="60" height="40" as="geometry"/>
                </mxCell>
                <mxCell id="bxaMljr0pyz9ZM-5e5pa-40" value="" style="shape=partialRectangle;html=1;whiteSpace=wrap;connectable=0;fillColor=none;top=0;left=0;bottom=0;right=0;overflow=hidden;" parent="bxaMljr0pyz9ZM-5e5pa-39" vertex="1">
                    <mxGeometry width="60" height="40" as="geometry">
                        <mxRectangle width="60" height="40" as="alternateBounds"/>
                    </mxGeometry>
                </mxCell>
                <mxCell id="bxaMljr0pyz9ZM-5e5pa-41" style="shape=tableRow;horizontal=0;startSize=0;swimlaneHead=0;swimlaneBody=0;top=0;left=0;bottom=0;right=0;collapsible=0;dropTarget=0;fillColor=none;points=[[0,0.5],[1,0.5]];portConstraint=eastwest;" parent="bxaMljr0pyz9ZM-5e5pa-38" vertex="1">
                    <mxGeometry y="40" width="60" height="40" as="geometry"/>
                </mxCell>
                <mxCell id="bxaMljr0pyz9ZM-5e5pa-42" value="N" style="shape=partialRectangle;html=1;whiteSpace=wrap;connectable=0;fillColor=none;top=0;left=0;bottom=0;right=0;overflow=hidden;" parent="bxaMljr0pyz9ZM-5e5pa-41" vertex="1">
                    <mxGeometry width="60" height="40" as="geometry">
                        <mxRectangle width="60" height="40" as="alternateBounds"/>
                    </mxGeometry>
                </mxCell>
                <mxCell id="bxaMljr0pyz9ZM-5e5pa-44" value="Incident" style="ellipse;whiteSpace=wrap;html=1;" parent="1" vertex="1">
                    <mxGeometry x="920" y="-50" width="150" height="100" as="geometry"/>
                </mxCell>
                <mxCell id="bxaMljr0pyz9ZM-5e5pa-46" value="" style="endArrow=none;html=1;rounded=0;entryX=0.5;entryY=-0.028;entryDx=0;entryDy=0;entryPerimeter=0;startArrow=none;exitX=0.5;exitY=1;exitDx=0;exitDy=0;" parent="1" source="80" edge="1">
                    <mxGeometry width="50" height="50" relative="1" as="geometry">
                        <mxPoint x="90" y="50" as="sourcePoint"/>
                        <mxPoint x="89.58000000000004" y="118.87999999999988" as="targetPoint"/>
                    </mxGeometry>
                </mxCell>
                <mxCell id="bxaMljr0pyz9ZM-5e5pa-47" value="" style="endArrow=none;html=1;rounded=0;entryX=0.5;entryY=-0.028;entryDx=0;entryDy=0;entryPerimeter=0;startArrow=none;" parent="1" edge="1" source="78">
                    <mxGeometry width="50" height="50" relative="1" as="geometry">
                        <mxPoint x="10" y="40" as="sourcePoint"/>
                        <mxPoint x="9.579999999999927" y="119.99999999999989" as="targetPoint"/>
                    </mxGeometry>
                </mxCell>
                <mxCell id="bxaMljr0pyz9ZM-5e5pa-58" value="" style="endArrow=none;html=1;rounded=0;entryX=0.5;entryY=-0.028;entryDx=0;entryDy=0;entryPerimeter=0;exitX=0.2;exitY=0.92;exitDx=0;exitDy=0;exitPerimeter=0;" parent="1" edge="1">
                    <mxGeometry width="50" height="50" relative="1" as="geometry">
                        <mxPoint x="10" y="200" as="sourcePoint"/>
                        <mxPoint x="9.579999999999927" y="278" as="targetPoint"/>
                    </mxGeometry>
                </mxCell>
                <mxCell id="bxaMljr0pyz9ZM-5e5pa-59" value="" style="endArrow=none;html=1;rounded=0;entryX=0.5;entryY=-0.028;entryDx=0;entryDy=0;entryPerimeter=0;exitX=0.2;exitY=0.92;exitDx=0;exitDy=0;exitPerimeter=0;" parent="1" edge="1">
                    <mxGeometry width="50" height="50" relative="1" as="geometry">
                        <mxPoint x="90" y="200" as="sourcePoint"/>
                        <mxPoint x="89.57999999999993" y="278" as="targetPoint"/>
                    </mxGeometry>
                </mxCell>
                <mxCell id="bxaMljr0pyz9ZM-5e5pa-60" value="Name" style="ellipse;whiteSpace=wrap;html=1;direction=south;dashed=1;textDirection=ltr;labelPosition=center;verticalLabelPosition=middle;align=center;verticalAlign=middle;horizontal=0;" parent="1" vertex="1">
                    <mxGeometry x="-30" y="280" width="80" height="120" as="geometry"/>
                </mxCell>
                <mxCell id="bxaMljr0pyz9ZM-5e5pa-61" value="Surname" style="ellipse;whiteSpace=wrap;html=1;direction=south;dashed=1;horizontal=0;" parent="1" vertex="1">
                    <mxGeometry x="50" y="280" width="80" height="120" as="geometry"/>
                </mxCell>
                <mxCell id="bxaMljr0pyz9ZM-5e5pa-79" value="" style="shape=table;html=1;whiteSpace=wrap;startSize=0;container=1;collapsible=0;childLayout=tableLayout;direction=east;flipV=0;flipH=0;" parent="1" vertex="1">
                    <mxGeometry x="-210" y="-50" width="120" height="40" as="geometry"/>
                </mxCell>
                <mxCell id="bxaMljr0pyz9ZM-5e5pa-82" style="shape=tableRow;horizontal=0;startSize=0;swimlaneHead=0;swimlaneBody=0;top=0;left=0;bottom=0;right=0;collapsible=0;dropTarget=0;fillColor=none;points=[[0,0.5],[1,0.5]];portConstraint=eastwest;" parent="bxaMljr0pyz9ZM-5e5pa-79" vertex="1">
                    <mxGeometry width="120" height="40" as="geometry"/>
                </mxCell>
                <mxCell id="bxaMljr0pyz9ZM-5e5pa-83" value="E" style="shape=partialRectangle;html=1;whiteSpace=wrap;connectable=0;fillColor=none;top=0;left=0;bottom=0;right=0;overflow=hidden;" parent="bxaMljr0pyz9ZM-5e5pa-82" vertex="1">
                    <mxGeometry width="60" height="40" as="geometry">
                        <mxRectangle width="60" height="40" as="alternateBounds"/>
                    </mxGeometry>
                </mxCell>
                <mxCell id="bxaMljr0pyz9ZM-5e5pa-85" style="shape=partialRectangle;html=1;whiteSpace=wrap;connectable=0;fillColor=none;top=0;left=0;bottom=0;right=0;overflow=hidden;" parent="bxaMljr0pyz9ZM-5e5pa-82" vertex="1">
                    <mxGeometry x="60" width="60" height="40" as="geometry">
                        <mxRectangle width="60" height="40" as="alternateBounds"/>
                    </mxGeometry>
                </mxCell>
                <mxCell id="bxaMljr0pyz9ZM-5e5pa-86" value="" style="shape=table;html=1;whiteSpace=wrap;startSize=0;container=1;collapsible=0;childLayout=tableLayout;direction=east;flipV=0;flipH=0;" parent="1" vertex="1">
                    <mxGeometry x="-210" y="20" width="120" height="40" as="geometry"/>
                </mxCell>
                <mxCell id="bxaMljr0pyz9ZM-5e5pa-87" style="shape=tableRow;horizontal=0;startSize=0;swimlaneHead=0;swimlaneBody=0;top=0;left=0;bottom=0;right=0;collapsible=0;dropTarget=0;fillColor=none;points=[[0,0.5],[1,0.5]];portConstraint=eastwest;" parent="bxaMljr0pyz9ZM-5e5pa-86" vertex="1">
                    <mxGeometry width="120" height="40" as="geometry"/>
                </mxCell>
                <mxCell id="bxaMljr0pyz9ZM-5e5pa-88" value="P" style="shape=partialRectangle;html=1;whiteSpace=wrap;connectable=0;fillColor=none;top=0;left=0;bottom=0;right=0;overflow=hidden;" parent="bxaMljr0pyz9ZM-5e5pa-87" vertex="1">
                    <mxGeometry width="60" height="40" as="geometry">
                        <mxRectangle width="60" height="40" as="alternateBounds"/>
                    </mxGeometry>
                </mxCell>
                <mxCell id="bxaMljr0pyz9ZM-5e5pa-89" style="shape=partialRectangle;html=1;whiteSpace=wrap;connectable=0;fillColor=none;top=0;left=0;bottom=0;right=0;overflow=hidden;" parent="bxaMljr0pyz9ZM-5e5pa-87" vertex="1">
                    <mxGeometry x="60" width="60" height="40" as="geometry">
                        <mxRectangle width="60" height="40" as="alternateBounds"/>
                    </mxGeometry>
                </mxCell>
                <mxCell id="bxaMljr0pyz9ZM-5e5pa-90" value="" style="endArrow=none;html=1;rounded=0;entryX=0.5;entryY=0.5;entryDx=0;entryDy=0;entryPerimeter=0;" parent="1" target="bxaMljr0pyz9ZM-5e5pa-99" edge="1">
                    <mxGeometry width="50" height="50" relative="1" as="geometry">
                        <mxPoint x="-90" y="-30" as="sourcePoint"/>
                        <mxPoint x="-30" y="-10" as="targetPoint"/>
                    </mxGeometry>
                </mxCell>
                <mxCell id="bxaMljr0pyz9ZM-5e5pa-92" value="" style="endArrow=none;html=1;rounded=0;" parent="1" edge="1">
                    <mxGeometry width="50" height="50" relative="1" as="geometry">
                        <mxPoint x="-290" y="-30.419999999999987" as="sourcePoint"/>
                        <mxPoint x="-210" y="-30.419999999999987" as="targetPoint"/>
                    </mxGeometry>
                </mxCell>
                <mxCell id="bxaMljr0pyz9ZM-5e5pa-93" value="" style="endArrow=none;html=1;rounded=0;" parent="1" edge="1">
                    <mxGeometry width="50" height="50" relative="1" as="geometry">
                        <mxPoint x="-290" y="39.58000000000004" as="sourcePoint"/>
                        <mxPoint x="-210" y="39.58000000000004" as="targetPoint"/>
                    </mxGeometry>
                </mxCell>
                <mxCell id="bxaMljr0pyz9ZM-5e5pa-94" value="Email" style="ellipse;whiteSpace=wrap;html=1;direction=south;dashed=1;textDirection=ltr;labelPosition=center;verticalLabelPosition=middle;align=center;verticalAlign=middle;horizontal=0;rotation=90;" parent="1" vertex="1">
                    <mxGeometry x="-390" y="-100" width="80" height="120" as="geometry"/>
                </mxCell>
                <mxCell id="bxaMljr0pyz9ZM-5e5pa-95" value="Password" style="ellipse;whiteSpace=wrap;html=1;direction=south;dashed=1;textDirection=ltr;labelPosition=center;verticalLabelPosition=middle;align=center;verticalAlign=middle;horizontal=0;rotation=90;" parent="1" vertex="1">
                    <mxGeometry x="-390" y="-20" width="80" height="120" as="geometry"/>
                </mxCell>
                <mxCell id="bxaMljr0pyz9ZM-5e5pa-96" value="" style="endArrow=none;html=1;rounded=0;" parent="1" target="76" edge="1">
                    <mxGeometry width="50" height="50" relative="1" as="geometry">
                        <mxPoint x="-90" y="40" as="sourcePoint"/>
                        <mxPoint x="-22" y="10" as="targetPoint"/>
                    </mxGeometry>
                </mxCell>
                <mxCell id="bxaMljr0pyz9ZM-5e5pa-98" value="" style="endArrow=classic;startArrow=classic;html=1;rounded=0;" parent="1" edge="1">
                    <mxGeometry width="50" height="50" relative="1" as="geometry">
                        <mxPoint x="-210" y="-60" as="sourcePoint"/>
                        <mxPoint x="-150" y="-60" as="targetPoint"/>
                    </mxGeometry>
                </mxCell>
                <mxCell id="bxaMljr0pyz9ZM-5e5pa-99" value="" style="ellipse;whiteSpace=wrap;html=1;aspect=fixed;fillColor=#0066CC;strokeColor=#6c8ebf;" parent="1" vertex="1">
                    <mxGeometry x="-20" y="-20" width="10" height="10" as="geometry"/>
                </mxCell>
                <mxCell id="bxaMljr0pyz9ZM-5e5pa-109" value="" style="endArrow=none;html=1;rounded=0;exitX=1;exitY=0.5;exitDx=0;exitDy=0;" parent="1" source="bxaMljr0pyz9ZM-5e5pa-20" edge="1">
                    <mxGeometry width="50" height="50" relative="1" as="geometry">
                        <mxPoint x="129.99999999999864" as="sourcePoint"/>
                        <mxPoint x="130" as="targetPoint"/>
                    </mxGeometry>
                </mxCell>
                <mxCell id="bxaMljr0pyz9ZM-5e5pa-111" value="" style="endArrow=none;html=1;rounded=0;exitX=1;exitY=0.5;exitDx=0;exitDy=0;" parent="1" source="bxaMljr0pyz9ZM-5e5pa-141" edge="1">
                    <mxGeometry width="50" height="50" relative="1" as="geometry">
                        <mxPoint x="1080" as="sourcePoint"/>
                        <mxPoint x="1150" y="-0.4200000000000159" as="targetPoint"/>
                    </mxGeometry>
                </mxCell>
                <mxCell id="bxaMljr0pyz9ZM-5e5pa-112" value="" style="endArrow=none;html=1;rounded=0;" parent="1" edge="1">
                    <mxGeometry width="50" height="50" relative="1" as="geometry">
                        <mxPoint x="1000" y="-80" as="sourcePoint"/>
                        <mxPoint x="1150" y="-80.42000000000007" as="targetPoint"/>
                    </mxGeometry>
                </mxCell>
                <mxCell id="bxaMljr0pyz9ZM-5e5pa-113" value="" style="endArrow=none;html=1;rounded=0;" parent="1" edge="1">
                    <mxGeometry width="50" height="50" relative="1" as="geometry">
                        <mxPoint x="1000" y="80" as="sourcePoint"/>
                        <mxPoint x="1150" y="79.58000000000004" as="targetPoint"/>
                    </mxGeometry>
                </mxCell>
                <mxCell id="bxaMljr0pyz9ZM-5e5pa-114" value="" style="shape=table;html=1;whiteSpace=wrap;startSize=0;container=1;collapsible=0;childLayout=tableLayout;direction=east;flipV=0;flipH=0;" parent="1" vertex="1">
                    <mxGeometry x="1150" y="-100" width="120" height="40" as="geometry"/>
                </mxCell>
                <mxCell id="bxaMljr0pyz9ZM-5e5pa-115" style="shape=tableRow;horizontal=0;startSize=0;swimlaneHead=0;swimlaneBody=0;top=0;left=0;bottom=0;right=0;collapsible=0;dropTarget=0;fillColor=none;points=[[0,0.5],[1,0.5]];portConstraint=eastwest;" parent="bxaMljr0pyz9ZM-5e5pa-114" vertex="1">
                    <mxGeometry width="120" height="40" as="geometry"/>
                </mxCell>
                <mxCell id="bxaMljr0pyz9ZM-5e5pa-116" value="" style="shape=partialRectangle;html=1;whiteSpace=wrap;connectable=0;fillColor=none;top=0;left=0;bottom=0;right=0;overflow=hidden;" parent="bxaMljr0pyz9ZM-5e5pa-115" vertex="1">
                    <mxGeometry width="60" height="40" as="geometry">
                        <mxRectangle width="60" height="40" as="alternateBounds"/>
                    </mxGeometry>
                </mxCell>
                <mxCell id="bxaMljr0pyz9ZM-5e5pa-117" style="shape=partialRectangle;html=1;whiteSpace=wrap;connectable=0;fillColor=none;top=0;left=0;bottom=0;right=0;overflow=hidden;" parent="bxaMljr0pyz9ZM-5e5pa-115" vertex="1">
                    <mxGeometry x="60" width="60" height="40" as="geometry">
                        <mxRectangle width="60" height="40" as="alternateBounds"/>
                    </mxGeometry>
                </mxCell>
                <mxCell id="bxaMljr0pyz9ZM-5e5pa-118" value="" style="shape=table;html=1;whiteSpace=wrap;startSize=0;container=1;collapsible=0;childLayout=tableLayout;direction=east;flipV=0;flipH=0;" parent="1" vertex="1">
                    <mxGeometry x="1150" y="-20" width="120" height="40" as="geometry"/>
                </mxCell>
                <mxCell id="bxaMljr0pyz9ZM-5e5pa-119" style="shape=tableRow;horizontal=0;startSize=0;swimlaneHead=0;swimlaneBody=0;top=0;left=0;bottom=0;right=0;collapsible=0;dropTarget=0;fillColor=none;points=[[0,0.5],[1,0.5]];portConstraint=eastwest;" parent="bxaMljr0pyz9ZM-5e5pa-118" vertex="1">
                    <mxGeometry width="120" height="40" as="geometry"/>
                </mxCell>
                <mxCell id="bxaMljr0pyz9ZM-5e5pa-120" value="" style="shape=partialRectangle;html=1;whiteSpace=wrap;connectable=0;fillColor=none;top=0;left=0;bottom=0;right=0;overflow=hidden;" parent="bxaMljr0pyz9ZM-5e5pa-119" vertex="1">
                    <mxGeometry width="60" height="40" as="geometry">
                        <mxRectangle width="60" height="40" as="alternateBounds"/>
                    </mxGeometry>
                </mxCell>
                <mxCell id="bxaMljr0pyz9ZM-5e5pa-121" style="shape=partialRectangle;html=1;whiteSpace=wrap;connectable=0;fillColor=none;top=0;left=0;bottom=0;right=0;overflow=hidden;" parent="bxaMljr0pyz9ZM-5e5pa-119" vertex="1">
                    <mxGeometry x="60" width="60" height="40" as="geometry">
                        <mxRectangle width="60" height="40" as="alternateBounds"/>
                    </mxGeometry>
                </mxCell>
                <mxCell id="bxaMljr0pyz9ZM-5e5pa-122" value="" style="shape=table;html=1;whiteSpace=wrap;startSize=0;container=1;collapsible=0;childLayout=tableLayout;direction=east;flipV=0;flipH=0;" parent="1" vertex="1">
                    <mxGeometry x="1150" y="60" width="120" height="40" as="geometry"/>
                </mxCell>
                <mxCell id="bxaMljr0pyz9ZM-5e5pa-123" style="shape=tableRow;horizontal=0;startSize=0;swimlaneHead=0;swimlaneBody=0;top=0;left=0;bottom=0;right=0;collapsible=0;dropTarget=0;fillColor=none;points=[[0,0.5],[1,0.5]];portConstraint=eastwest;" parent="bxaMljr0pyz9ZM-5e5pa-122" vertex="1">
                    <mxGeometry width="120" height="40" as="geometry"/>
                </mxCell>
                <mxCell id="bxaMljr0pyz9ZM-5e5pa-124" value="" style="shape=partialRectangle;html=1;whiteSpace=wrap;connectable=0;fillColor=none;top=0;left=0;bottom=0;right=0;overflow=hidden;" parent="bxaMljr0pyz9ZM-5e5pa-123" vertex="1">
                    <mxGeometry width="60" height="40" as="geometry">
                        <mxRectangle width="60" height="40" as="alternateBounds"/>
                    </mxGeometry>
                </mxCell>
                <mxCell id="bxaMljr0pyz9ZM-5e5pa-125" style="shape=partialRectangle;html=1;whiteSpace=wrap;connectable=0;fillColor=none;top=0;left=0;bottom=0;right=0;overflow=hidden;" parent="bxaMljr0pyz9ZM-5e5pa-123" vertex="1">
                    <mxGeometry x="60" width="60" height="40" as="geometry">
                        <mxRectangle width="60" height="40" as="alternateBounds"/>
                    </mxGeometry>
                </mxCell>
                <mxCell id="bxaMljr0pyz9ZM-5e5pa-126" value="Description" style="ellipse;whiteSpace=wrap;html=1;direction=south;dashed=1;textDirection=ltr;labelPosition=center;verticalLabelPosition=middle;align=center;verticalAlign=middle;horizontal=0;rotation=90;" parent="1" vertex="1">
                    <mxGeometry x="1370" y="-140" width="80" height="120" as="geometry"/>
                </mxCell>
                <mxCell id="bxaMljr0pyz9ZM-5e5pa-127" value="" style="endArrow=none;html=1;rounded=0;" parent="1" edge="1">
                    <mxGeometry width="50" height="50" relative="1" as="geometry">
                        <mxPoint x="1270" y="-80.42000000000007" as="sourcePoint"/>
                        <mxPoint x="1350" y="-80.42000000000007" as="targetPoint"/>
                    </mxGeometry>
                </mxCell>
                <mxCell id="bxaMljr0pyz9ZM-5e5pa-128" value="Date" style="ellipse;whiteSpace=wrap;html=1;direction=south;dashed=1;textDirection=ltr;labelPosition=center;verticalLabelPosition=middle;align=center;verticalAlign=middle;horizontal=0;rotation=90;" parent="1" vertex="1">
                    <mxGeometry x="1370" y="-60" width="80" height="120" as="geometry"/>
                </mxCell>
                <mxCell id="bxaMljr0pyz9ZM-5e5pa-129" value="Adress" style="ellipse;whiteSpace=wrap;html=1;direction=south;textDirection=ltr;labelPosition=center;verticalLabelPosition=middle;align=center;verticalAlign=middle;horizontal=0;rotation=90;" parent="1" vertex="1">
                    <mxGeometry x="1370" y="20" width="80" height="120" as="geometry"/>
                </mxCell>
                <mxCell id="bxaMljr0pyz9ZM-5e5pa-130" value="" style="endArrow=none;html=1;rounded=0;" parent="1" edge="1">
                    <mxGeometry width="50" height="50" relative="1" as="geometry">
                        <mxPoint x="1270" y="-0.42000000000007276" as="sourcePoint"/>
                        <mxPoint x="1350" y="-0.42000000000007276" as="targetPoint"/>
                    </mxGeometry>
                </mxCell>
                <mxCell id="bxaMljr0pyz9ZM-5e5pa-131" value="" style="endArrow=none;html=1;rounded=0;" parent="1" edge="1">
                    <mxGeometry width="50" height="50" relative="1" as="geometry">
                        <mxPoint x="1270" y="79.57999999999993" as="sourcePoint"/>
                        <mxPoint x="1350" y="79.57999999999993" as="targetPoint"/>
                    </mxGeometry>
                </mxCell>
                <mxCell id="bxaMljr0pyz9ZM-5e5pa-134" value="" style="endArrow=none;html=1;rounded=0;entryX=0.5;entryY=1;entryDx=0;entryDy=0;" parent="1" target="bxaMljr0pyz9ZM-5e5pa-140" edge="1">
                    <mxGeometry width="50" height="50" relative="1" as="geometry">
                        <mxPoint x="1000" y="80" as="sourcePoint"/>
                        <mxPoint x="1000" y="60" as="targetPoint"/>
                    </mxGeometry>
                </mxCell>
                <mxCell id="bxaMljr0pyz9ZM-5e5pa-136" value="" style="endArrow=classic;startArrow=classic;html=1;rounded=0;" parent="1" edge="1">
                    <mxGeometry width="50" height="50" relative="1" as="geometry">
                        <mxPoint x="1150" y="-110" as="sourcePoint"/>
                        <mxPoint x="1210" y="-110" as="targetPoint"/>
                    </mxGeometry>
                </mxCell>
                <mxCell id="bxaMljr0pyz9ZM-5e5pa-137" value="" style="endArrow=classic;startArrow=classic;html=1;rounded=0;" parent="1" edge="1">
                    <mxGeometry width="50" height="50" relative="1" as="geometry">
                        <mxPoint x="1150" y="-30.420000000000016" as="sourcePoint"/>
                        <mxPoint x="1210" y="-30.420000000000016" as="targetPoint"/>
                    </mxGeometry>
                </mxCell>
                <mxCell id="bxaMljr0pyz9ZM-5e5pa-138" value="" style="endArrow=classic;startArrow=classic;html=1;rounded=0;" parent="1" edge="1">
                    <mxGeometry width="50" height="50" relative="1" as="geometry">
                        <mxPoint x="1150" y="50" as="sourcePoint"/>
                        <mxPoint x="1210" y="50" as="targetPoint"/>
                    </mxGeometry>
                </mxCell>
                <mxCell id="bxaMljr0pyz9ZM-5e5pa-140" value="" style="ellipse;whiteSpace=wrap;html=1;aspect=fixed;fillColor=#0066CC;strokeColor=#6c8ebf;" parent="1" vertex="1">
                    <mxGeometry x="995.5" y="45" width="10" height="10" as="geometry"/>
                </mxCell>
                <mxCell id="bxaMljr0pyz9ZM-5e5pa-141" value="" style="ellipse;whiteSpace=wrap;html=1;aspect=fixed;fillColor=#0066CC;strokeColor=#6c8ebf;" parent="1" vertex="1">
                    <mxGeometry x="1070" y="-5" width="10" height="10" as="geometry"/>
                </mxCell>
                <mxCell id="Ls7qr7yxb6hvA0zFbkPb-1" value="" style="endArrow=none;html=1;rounded=0;" parent="1" edge="1">
                    <mxGeometry width="50" height="50" relative="1" as="geometry">
                        <mxPoint x="1280" y="200" as="sourcePoint"/>
                        <mxPoint x="1370" y="110" as="targetPoint"/>
                    </mxGeometry>
                </mxCell>
                <mxCell id="Ls7qr7yxb6hvA0zFbkPb-2" value="" style="endArrow=none;html=1;rounded=0;" parent="1" edge="1">
                    <mxGeometry width="50" height="50" relative="1" as="geometry">
                        <mxPoint x="1539" y="200" as="sourcePoint"/>
                        <mxPoint x="1449" y="110" as="targetPoint"/>
                    </mxGeometry>
                </mxCell>
                <mxCell id="Ls7qr7yxb6hvA0zFbkPb-3" value="" style="endArrow=none;html=1;rounded=0;entryX=0.5;entryY=0;entryDx=0;entryDy=0;" parent="1" target="bxaMljr0pyz9ZM-5e5pa-129" edge="1">
                    <mxGeometry width="50" height="50" relative="1" as="geometry">
                        <mxPoint x="1410" y="200" as="sourcePoint"/>
                        <mxPoint x="1435" y="225" as="targetPoint"/>
                    </mxGeometry>
                </mxCell>
                <mxCell id="Ls7qr7yxb6hvA0zFbkPb-4" value="" style="shape=table;html=1;whiteSpace=wrap;startSize=0;container=1;collapsible=0;childLayout=tableLayout;direction=east;flipV=0;flipH=0;" parent="1" vertex="1">
                    <mxGeometry x="1250" y="200" width="60" height="80" as="geometry"/>
                </mxCell>
                <mxCell id="Ls7qr7yxb6hvA0zFbkPb-5" value="" style="shape=tableRow;horizontal=0;startSize=0;swimlaneHead=0;swimlaneBody=0;top=0;left=0;bottom=0;right=0;collapsible=0;dropTarget=0;fillColor=none;points=[[0,0.5],[1,0.5]];portConstraint=eastwest;" parent="Ls7qr7yxb6hvA0zFbkPb-4" vertex="1">
                    <mxGeometry width="60" height="40" as="geometry"/>
                </mxCell>
                <mxCell id="Ls7qr7yxb6hvA0zFbkPb-6" value="" style="shape=partialRectangle;html=1;whiteSpace=wrap;connectable=0;fillColor=none;top=0;left=0;bottom=0;right=0;overflow=hidden;" parent="Ls7qr7yxb6hvA0zFbkPb-5" vertex="1">
                    <mxGeometry width="60" height="40" as="geometry">
                        <mxRectangle width="60" height="40" as="alternateBounds"/>
                    </mxGeometry>
                </mxCell>
                <mxCell id="Ls7qr7yxb6hvA0zFbkPb-7" style="shape=tableRow;horizontal=0;startSize=0;swimlaneHead=0;swimlaneBody=0;top=0;left=0;bottom=0;right=0;collapsible=0;dropTarget=0;fillColor=none;points=[[0,0.5],[1,0.5]];portConstraint=eastwest;" parent="Ls7qr7yxb6hvA0zFbkPb-4" vertex="1">
                    <mxGeometry y="40" width="60" height="40" as="geometry"/>
                </mxCell>
                <mxCell id="Ls7qr7yxb6hvA0zFbkPb-8" value="" style="shape=partialRectangle;html=1;whiteSpace=wrap;connectable=0;fillColor=none;top=0;left=0;bottom=0;right=0;overflow=hidden;" parent="Ls7qr7yxb6hvA0zFbkPb-7" vertex="1">
                    <mxGeometry width="60" height="40" as="geometry">
                        <mxRectangle width="60" height="40" as="alternateBounds"/>
                    </mxGeometry>
                </mxCell>
                <mxCell id="Ls7qr7yxb6hvA0zFbkPb-9" value="" style="shape=table;html=1;whiteSpace=wrap;startSize=0;container=1;collapsible=0;childLayout=tableLayout;direction=east;flipV=0;flipH=0;" parent="1" vertex="1">
                    <mxGeometry x="1380" y="200" width="60" height="80" as="geometry"/>
                </mxCell>
                <mxCell id="Ls7qr7yxb6hvA0zFbkPb-10" value="" style="shape=tableRow;horizontal=0;startSize=0;swimlaneHead=0;swimlaneBody=0;top=0;left=0;bottom=0;right=0;collapsible=0;dropTarget=0;fillColor=none;points=[[0,0.5],[1,0.5]];portConstraint=eastwest;" parent="Ls7qr7yxb6hvA0zFbkPb-9" vertex="1">
                    <mxGeometry width="60" height="40" as="geometry"/>
                </mxCell>
                <mxCell id="Ls7qr7yxb6hvA0zFbkPb-11" value="" style="shape=partialRectangle;html=1;whiteSpace=wrap;connectable=0;fillColor=none;top=0;left=0;bottom=0;right=0;overflow=hidden;" parent="Ls7qr7yxb6hvA0zFbkPb-10" vertex="1">
                    <mxGeometry width="60" height="40" as="geometry">
                        <mxRectangle width="60" height="40" as="alternateBounds"/>
                    </mxGeometry>
                </mxCell>
                <mxCell id="Ls7qr7yxb6hvA0zFbkPb-12" style="shape=tableRow;horizontal=0;startSize=0;swimlaneHead=0;swimlaneBody=0;top=0;left=0;bottom=0;right=0;collapsible=0;dropTarget=0;fillColor=none;points=[[0,0.5],[1,0.5]];portConstraint=eastwest;" parent="Ls7qr7yxb6hvA0zFbkPb-9" vertex="1">
                    <mxGeometry y="40" width="60" height="40" as="geometry"/>
                </mxCell>
                <mxCell id="Ls7qr7yxb6hvA0zFbkPb-13" value="" style="shape=partialRectangle;html=1;whiteSpace=wrap;connectable=0;fillColor=none;top=0;left=0;bottom=0;right=0;overflow=hidden;" parent="Ls7qr7yxb6hvA0zFbkPb-12" vertex="1">
                    <mxGeometry width="60" height="40" as="geometry">
                        <mxRectangle width="60" height="40" as="alternateBounds"/>
                    </mxGeometry>
                </mxCell>
                <mxCell id="Ls7qr7yxb6hvA0zFbkPb-14" value="" style="shape=table;html=1;whiteSpace=wrap;startSize=0;container=1;collapsible=0;childLayout=tableLayout;direction=east;flipV=0;flipH=0;" parent="1" vertex="1">
                    <mxGeometry x="1510" y="200" width="60" height="80" as="geometry"/>
                </mxCell>
                <mxCell id="Ls7qr7yxb6hvA0zFbkPb-15" value="" style="shape=tableRow;horizontal=0;startSize=0;swimlaneHead=0;swimlaneBody=0;top=0;left=0;bottom=0;right=0;collapsible=0;dropTarget=0;fillColor=none;points=[[0,0.5],[1,0.5]];portConstraint=eastwest;" parent="Ls7qr7yxb6hvA0zFbkPb-14" vertex="1">
                    <mxGeometry width="60" height="40" as="geometry"/>
                </mxCell>
                <mxCell id="Ls7qr7yxb6hvA0zFbkPb-16" value="" style="shape=partialRectangle;html=1;whiteSpace=wrap;connectable=0;fillColor=none;top=0;left=0;bottom=0;right=0;overflow=hidden;" parent="Ls7qr7yxb6hvA0zFbkPb-15" vertex="1">
                    <mxGeometry width="60" height="40" as="geometry">
                        <mxRectangle width="60" height="40" as="alternateBounds"/>
                    </mxGeometry>
                </mxCell>
                <mxCell id="Ls7qr7yxb6hvA0zFbkPb-17" style="shape=tableRow;horizontal=0;startSize=0;swimlaneHead=0;swimlaneBody=0;top=0;left=0;bottom=0;right=0;collapsible=0;dropTarget=0;fillColor=none;points=[[0,0.5],[1,0.5]];portConstraint=eastwest;" parent="Ls7qr7yxb6hvA0zFbkPb-14" vertex="1">
                    <mxGeometry y="40" width="60" height="40" as="geometry"/>
                </mxCell>
                <mxCell id="Ls7qr7yxb6hvA0zFbkPb-18" value="" style="shape=partialRectangle;html=1;whiteSpace=wrap;connectable=0;fillColor=none;top=0;left=0;bottom=0;right=0;overflow=hidden;" parent="Ls7qr7yxb6hvA0zFbkPb-17" vertex="1">
                    <mxGeometry width="60" height="40" as="geometry">
                        <mxRectangle width="60" height="40" as="alternateBounds"/>
                    </mxGeometry>
                </mxCell>
                <mxCell id="Ls7qr7yxb6hvA0zFbkPb-19" value="" style="endArrow=none;html=1;rounded=0;entryX=0.5;entryY=0;entryDx=0;entryDy=0;" parent="1" edge="1">
                    <mxGeometry width="50" height="50" relative="1" as="geometry">
                        <mxPoint x="1279.52" y="360" as="sourcePoint"/>
                        <mxPoint x="1279.52" y="280" as="targetPoint"/>
                    </mxGeometry>
                </mxCell>
                <mxCell id="Ls7qr7yxb6hvA0zFbkPb-20" value="" style="endArrow=none;html=1;rounded=0;entryX=0.5;entryY=0;entryDx=0;entryDy=0;" parent="1" edge="1">
                    <mxGeometry width="50" height="50" relative="1" as="geometry">
                        <mxPoint x="1409.52" y="360" as="sourcePoint"/>
                        <mxPoint x="1409.52" y="280" as="targetPoint"/>
                    </mxGeometry>
                </mxCell>
                <mxCell id="Ls7qr7yxb6hvA0zFbkPb-21" value="" style="endArrow=none;html=1;rounded=0;entryX=0.5;entryY=0;entryDx=0;entryDy=0;" parent="1" edge="1">
                    <mxGeometry width="50" height="50" relative="1" as="geometry">
                        <mxPoint x="1539.52" y="360" as="sourcePoint"/>
                        <mxPoint x="1539.52" y="280" as="targetPoint"/>
                    </mxGeometry>
                </mxCell>
                <mxCell id="Ls7qr7yxb6hvA0zFbkPb-22" value="Nr°&lt;br&gt;(+)" style="ellipse;whiteSpace=wrap;html=1;direction=south;dashed=1;horizontal=0;rotation=90;" parent="1" vertex="1">
                    <mxGeometry x="1240" y="340" width="80" height="120" as="geometry"/>
                </mxCell>
                <mxCell id="Ls7qr7yxb6hvA0zFbkPb-23" value="Rue" style="ellipse;whiteSpace=wrap;html=1;direction=south;dashed=1;horizontal=0;rotation=90;" parent="1" vertex="1">
                    <mxGeometry x="1370" y="340" width="80" height="120" as="geometry"/>
                </mxCell>
                <mxCell id="Ls7qr7yxb6hvA0zFbkPb-24" value="Ville" style="ellipse;whiteSpace=wrap;html=1;direction=south;dashed=1;horizontal=0;rotation=90;" parent="1" vertex="1">
                    <mxGeometry x="1500" y="340" width="80" height="120" as="geometry"/>
                </mxCell>
                <mxCell id="Ls7qr7yxb6hvA0zFbkPb-25" value="" style="endArrow=classic;startArrow=classic;html=1;rounded=1;" parent="1" edge="1">
                    <mxGeometry width="50" height="50" relative="1" as="geometry">
                        <mxPoint x="1240" y="240" as="sourcePoint"/>
                        <mxPoint x="1240" y="200" as="targetPoint"/>
                    </mxGeometry>
                </mxCell>
                <mxCell id="Ls7qr7yxb6hvA0zFbkPb-27" value="" style="endArrow=classic;startArrow=classic;html=1;rounded=0;" parent="1" edge="1">
                    <mxGeometry width="50" height="50" relative="1" as="geometry">
                        <mxPoint x="1370" y="240" as="sourcePoint"/>
                        <mxPoint x="1370" y="200" as="targetPoint"/>
                    </mxGeometry>
                </mxCell>
                <mxCell id="Ls7qr7yxb6hvA0zFbkPb-28" value="" style="endArrow=classic;startArrow=classic;html=1;rounded=0;" parent="1" edge="1">
                    <mxGeometry width="50" height="50" relative="1" as="geometry">
                        <mxPoint x="1500" y="240" as="sourcePoint"/>
                        <mxPoint x="1500" y="200" as="targetPoint"/>
                    </mxGeometry>
                </mxCell>
                <mxCell id="Ls7qr7yxb6hvA0zFbkPb-43" value="" style="endArrow=classic;startArrow=classic;html=1;rounded=0;" parent="1" edge="1">
                    <mxGeometry width="50" height="50" relative="1" as="geometry">
                        <mxPoint x="-150.00000000000045" y="-60" as="sourcePoint"/>
                        <mxPoint x="-90.00000000000045" y="-60" as="targetPoint"/>
                    </mxGeometry>
                </mxCell>
                <mxCell id="Ls7qr7yxb6hvA0zFbkPb-44" value="" style="endArrow=classic;startArrow=classic;html=1;rounded=0;" parent="1" edge="1">
                    <mxGeometry width="50" height="50" relative="1" as="geometry">
                        <mxPoint x="-150.00000000000045" y="10" as="sourcePoint"/>
                        <mxPoint x="-90.00000000000045" y="10" as="targetPoint"/>
                    </mxGeometry>
                </mxCell>
                <mxCell id="Ls7qr7yxb6hvA0zFbkPb-45" value="Incidents" style="ellipse;whiteSpace=wrap;html=1;" parent="1" vertex="1">
                    <mxGeometry x="440" y="-50" width="150" height="100" as="geometry"/>
                </mxCell>
                <mxCell id="Ls7qr7yxb6hvA0zFbkPb-53" value="" style="endArrow=none;html=1;rounded=0;entryX=0.5;entryY=-0.028;entryDx=0;entryDy=0;entryPerimeter=0;exitX=0.2;exitY=0.92;exitDx=0;exitDy=0;exitPerimeter=0;" parent="1" edge="1">
                    <mxGeometry width="50" height="50" relative="1" as="geometry">
                        <mxPoint x="749.9999999999995" y="20" as="sourcePoint"/>
                        <mxPoint x="749.5799999999999" y="98" as="targetPoint"/>
                    </mxGeometry>
                </mxCell>
                <mxCell id="Ls7qr7yxb6hvA0zFbkPb-54" value="Moderateur&lt;br&gt;(Approuve)" style="ellipse;whiteSpace=wrap;html=1;direction=south;horizontal=0;rotation=90;" parent="1" vertex="1">
                    <mxGeometry x="710" y="80" width="80" height="120" as="geometry"/>
                </mxCell>
                <mxCell id="Ls7qr7yxb6hvA0zFbkPb-55" value="" style="shape=table;html=1;whiteSpace=wrap;startSize=0;container=1;collapsible=0;childLayout=tableLayout;direction=east;flipV=0;flipH=0;" parent="1" vertex="1">
                    <mxGeometry x="660" y="-20" width="180" height="40" as="geometry"/>
                </mxCell>
                <mxCell id="Ls7qr7yxb6hvA0zFbkPb-56" style="shape=tableRow;horizontal=0;startSize=0;swimlaneHead=0;swimlaneBody=0;top=0;left=0;bottom=0;right=0;collapsible=0;dropTarget=0;fillColor=none;points=[[0,0.5],[1,0.5]];portConstraint=eastwest;" parent="Ls7qr7yxb6hvA0zFbkPb-55" vertex="1">
                    <mxGeometry width="180" height="40" as="geometry"/>
                </mxCell>
                <mxCell id="Ls7qr7yxb6hvA0zFbkPb-59" style="shape=partialRectangle;html=1;whiteSpace=wrap;connectable=0;fillColor=none;top=0;left=0;bottom=0;right=0;overflow=hidden;" parent="Ls7qr7yxb6hvA0zFbkPb-56" vertex="1">
                    <mxGeometry width="60" height="40" as="geometry">
                        <mxRectangle width="60" height="40" as="alternateBounds"/>
                    </mxGeometry>
                </mxCell>
                <mxCell id="Ls7qr7yxb6hvA0zFbkPb-57" value="" style="shape=partialRectangle;html=1;whiteSpace=wrap;connectable=0;fillColor=none;top=0;left=0;bottom=0;right=0;overflow=hidden;" parent="Ls7qr7yxb6hvA0zFbkPb-56" vertex="1">
                    <mxGeometry x="60" width="60" height="40" as="geometry">
                        <mxRectangle width="60" height="40" as="alternateBounds"/>
                    </mxGeometry>
                </mxCell>
                <mxCell id="Ls7qr7yxb6hvA0zFbkPb-58" style="shape=partialRectangle;html=1;whiteSpace=wrap;connectable=0;fillColor=none;top=0;left=0;bottom=0;right=0;overflow=hidden;" parent="Ls7qr7yxb6hvA0zFbkPb-56" vertex="1">
                    <mxGeometry x="120" width="60" height="40" as="geometry">
                        <mxRectangle width="60" height="40" as="alternateBounds"/>
                    </mxGeometry>
                </mxCell>
                <mxCell id="Ls7qr7yxb6hvA0zFbkPb-60" value="" style="endArrow=none;html=1;rounded=1;entryX=0;entryY=0.5;entryDx=0;entryDy=0;" parent="1" source="Ls7qr7yxb6hvA0zFbkPb-45" target="Ls7qr7yxb6hvA0zFbkPb-56" edge="1">
                    <mxGeometry width="50" height="50" relative="1" as="geometry">
                        <mxPoint x="770" y="240" as="sourcePoint"/>
                        <mxPoint x="820" y="190" as="targetPoint"/>
                    </mxGeometry>
                </mxCell>
                <mxCell id="Ls7qr7yxb6hvA0zFbkPb-61" value="" style="endArrow=none;html=1;rounded=1;entryX=0;entryY=0.5;entryDx=0;entryDy=0;" parent="1" source="bxaMljr0pyz9ZM-5e5pa-4" target="Ls7qr7yxb6hvA0zFbkPb-45" edge="1">
                    <mxGeometry width="50" height="50" relative="1" as="geometry">
                        <mxPoint x="770" y="220" as="sourcePoint"/>
                        <mxPoint x="820" y="170" as="targetPoint"/>
                    </mxGeometry>
                </mxCell>
                <mxCell id="Ls7qr7yxb6hvA0zFbkPb-62" value="" style="endArrow=classic;startArrow=classic;html=1;rounded=1;" parent="1" edge="1">
                    <mxGeometry width="50" height="50" relative="1" as="geometry">
                        <mxPoint x="720" y="-30" as="sourcePoint"/>
                        <mxPoint x="840" y="-30" as="targetPoint"/>
                    </mxGeometry>
                </mxCell>
                <mxCell id="Ls7qr7yxb6hvA0zFbkPb-63" value="" style="shape=table;html=1;whiteSpace=wrap;startSize=0;container=1;collapsible=0;childLayout=tableLayout;direction=east;flipV=0;flipH=0;" parent="1" vertex="1">
                    <mxGeometry x="490" y="-210" width="60" height="80" as="geometry"/>
                </mxCell>
                <mxCell id="Ls7qr7yxb6hvA0zFbkPb-64" value="" style="shape=tableRow;horizontal=0;startSize=0;swimlaneHead=0;swimlaneBody=0;top=0;left=0;bottom=0;right=0;collapsible=0;dropTarget=0;fillColor=none;points=[[0,0.5],[1,0.5]];portConstraint=eastwest;" parent="Ls7qr7yxb6hvA0zFbkPb-63" vertex="1">
                    <mxGeometry width="60" height="40" as="geometry"/>
                </mxCell>
                <mxCell id="Ls7qr7yxb6hvA0zFbkPb-65" value="" style="shape=partialRectangle;html=1;whiteSpace=wrap;connectable=0;fillColor=none;top=0;left=0;bottom=0;right=0;overflow=hidden;" parent="Ls7qr7yxb6hvA0zFbkPb-64" vertex="1">
                    <mxGeometry width="60" height="40" as="geometry">
                        <mxRectangle width="60" height="40" as="alternateBounds"/>
                    </mxGeometry>
                </mxCell>
                <mxCell id="Ls7qr7yxb6hvA0zFbkPb-66" style="shape=tableRow;horizontal=0;startSize=0;swimlaneHead=0;swimlaneBody=0;top=0;left=0;bottom=0;right=0;collapsible=0;dropTarget=0;fillColor=none;points=[[0,0.5],[1,0.5]];portConstraint=eastwest;" parent="Ls7qr7yxb6hvA0zFbkPb-63" vertex="1">
                    <mxGeometry y="40" width="60" height="40" as="geometry"/>
                </mxCell>
                <mxCell id="Ls7qr7yxb6hvA0zFbkPb-67" value="" style="shape=partialRectangle;html=1;whiteSpace=wrap;connectable=0;fillColor=none;top=0;left=0;bottom=0;right=0;overflow=hidden;" parent="Ls7qr7yxb6hvA0zFbkPb-66" vertex="1">
                    <mxGeometry width="60" height="40" as="geometry">
                        <mxRectangle width="60" height="40" as="alternateBounds"/>
                    </mxGeometry>
                </mxCell>
                <mxCell id="Ls7qr7yxb6hvA0zFbkPb-68" value="" style="endArrow=none;html=1;rounded=0;entryX=0.5;entryY=0;entryDx=0;entryDy=0;" parent="1" edge="1">
                    <mxGeometry width="50" height="50" relative="1" as="geometry">
                        <mxPoint x="519.52" y="-50" as="sourcePoint"/>
                        <mxPoint x="519.52" y="-130" as="targetPoint"/>
                    </mxGeometry>
                </mxCell>
                <mxCell id="Ls7qr7yxb6hvA0zFbkPb-69" value="&lt;font style=&quot;font-size: 11px&quot;&gt;Vote&lt;br&gt;(code)&lt;br&gt;&lt;/font&gt;" style="ellipse;whiteSpace=wrap;html=1;direction=south;dashed=1;horizontal=0;spacing=-1;rotation=90;" parent="1" vertex="1">
                    <mxGeometry x="480" y="-420" width="80" height="120" as="geometry"/>
                </mxCell>
                <mxCell id="Ls7qr7yxb6hvA0zFbkPb-70" value="" style="endArrow=classic;startArrow=classic;html=1;rounded=1;" parent="1" edge="1">
                    <mxGeometry width="50" height="50" relative="1" as="geometry">
                        <mxPoint x="480" y="-170" as="sourcePoint"/>
                        <mxPoint x="480" y="-210" as="targetPoint"/>
                    </mxGeometry>
                </mxCell>
                <mxCell id="Ls7qr7yxb6hvA0zFbkPb-71" value="" style="endArrow=none;html=1;rounded=0;entryX=0.5;entryY=0;entryDx=0;entryDy=0;" parent="1" edge="1" target="Ls7qr7yxb6hvA0zFbkPb-69">
                    <mxGeometry width="50" height="50" relative="1" as="geometry">
                        <mxPoint x="519.41" y="-210" as="sourcePoint"/>
                        <mxPoint x="519.41" y="-290" as="targetPoint"/>
                    </mxGeometry>
                </mxCell>
                <mxCell id="Ls7qr7yxb6hvA0zFbkPb-74" value="" style="endArrow=none;dashed=1;html=1;dashPattern=1 3;strokeWidth=2;rounded=1;fontSize=11;exitX=1;exitY=0;exitDx=0;exitDy=0;startArrow=none;" parent="1" source="Ls7qr7yxb6hvA0zFbkPb-72" edge="1">
                    <mxGeometry width="50" height="50" relative="1" as="geometry">
                        <mxPoint x="430" y="-300" as="sourcePoint"/>
                        <mxPoint x="470" y="-340" as="targetPoint"/>
                    </mxGeometry>
                </mxCell>
                <mxCell id="Ls7qr7yxb6hvA0zFbkPb-72" value="&lt;b&gt;&lt;font style=&quot;font-size: 18px;&quot;&gt;U&lt;/font&gt;&lt;/b&gt;" style="ellipse;whiteSpace=wrap;html=1;fontSize=11;" parent="1" vertex="1">
                    <mxGeometry x="260" y="-200" width="40" height="40" as="geometry"/>
                </mxCell>
                <mxCell id="Ls7qr7yxb6hvA0zFbkPb-75" value="" style="endArrow=none;dashed=1;html=1;dashPattern=1 3;strokeWidth=2;rounded=1;fontSize=11;exitX=1;exitY=0;exitDx=0;exitDy=0;" parent="1" source="bxaMljr0pyz9ZM-5e5pa-20" target="Ls7qr7yxb6hvA0zFbkPb-72" edge="1">
                    <mxGeometry width="50" height="50" relative="1" as="geometry">
                        <mxPoint x="108.03300858899047" y="-35.35533905932721" as="sourcePoint"/>
                        <mxPoint x="480" y="-350" as="targetPoint"/>
                    </mxGeometry>
                </mxCell>
                <mxCell id="2" value="&lt;span&gt;code:{Oui, Non}&lt;/span&gt;" style="text;html=1;align=center;verticalAlign=middle;resizable=0;points=[];autosize=1;strokeColor=none;fillColor=none;" vertex="1" parent="1">
                    <mxGeometry x="700" y="190" width="100" height="20" as="geometry"/>
                </mxCell>
                <mxCell id="3" value="&lt;span style=&quot;font-size: 11px&quot;&gt;{VoteUp, VoteDown}&lt;/span&gt;" style="text;html=1;align=center;verticalAlign=middle;resizable=0;points=[];autosize=1;strokeColor=none;fillColor=none;" vertex="1" parent="1">
                    <mxGeometry x="460" y="-425" width="120" height="20" as="geometry"/>
                </mxCell>
                <mxCell id="7" value="" style="endArrow=classic;startArrow=classic;html=1;rounded=0;" edge="1" parent="1">
                    <mxGeometry width="50" height="50" relative="1" as="geometry">
                        <mxPoint x="129.99999999999955" y="119.99999999999977" as="sourcePoint"/>
                        <mxPoint x="130" y="160" as="targetPoint"/>
                    </mxGeometry>
                </mxCell>
                <mxCell id="9" value="" style="endArrow=classic;startArrow=classic;html=1;rounded=0;" edge="1" parent="1">
                    <mxGeometry width="50" height="50" relative="1" as="geometry">
                        <mxPoint x="-30.000000000000455" y="119.99999999999977" as="sourcePoint"/>
                        <mxPoint x="-30" y="159.99999999999977" as="targetPoint"/>
                    </mxGeometry>
                </mxCell>
                <mxCell id="10" value="" style="endArrow=classic;startArrow=classic;html=1;rounded=1;" edge="1" parent="1">
                    <mxGeometry width="50" height="50" relative="1" as="geometry">
                        <mxPoint x="240" y="-30.590000000000227" as="sourcePoint"/>
                        <mxPoint x="360" y="-30.590000000000227" as="targetPoint"/>
                    </mxGeometry>
                </mxCell>
                <mxCell id="59" value="" style="shape=table;html=1;whiteSpace=wrap;startSize=0;container=1;collapsible=0;childLayout=tableLayout;direction=east;flipV=0;flipH=0;" vertex="1" parent="1">
                    <mxGeometry x="25" y="-210" width="60" height="80" as="geometry"/>
                </mxCell>
                <mxCell id="60" value="" style="shape=tableRow;horizontal=0;startSize=0;swimlaneHead=0;swimlaneBody=0;top=0;left=0;bottom=0;right=0;collapsible=0;dropTarget=0;fillColor=none;points=[[0,0.5],[1,0.5]];portConstraint=eastwest;" vertex="1" parent="59">
                    <mxGeometry width="60" height="40" as="geometry"/>
                </mxCell>
                <mxCell id="61" value="R" style="shape=partialRectangle;html=1;whiteSpace=wrap;connectable=0;fillColor=none;top=0;left=0;bottom=0;right=0;overflow=hidden;" vertex="1" parent="60">
                    <mxGeometry width="60" height="40" as="geometry">
                        <mxRectangle width="60" height="40" as="alternateBounds"/>
                    </mxGeometry>
                </mxCell>
                <mxCell id="62" style="shape=tableRow;horizontal=0;startSize=0;swimlaneHead=0;swimlaneBody=0;top=0;left=0;bottom=0;right=0;collapsible=0;dropTarget=0;fillColor=none;points=[[0,0.5],[1,0.5]];portConstraint=eastwest;" vertex="1" parent="59">
                    <mxGeometry y="40" width="60" height="40" as="geometry"/>
                </mxCell>
                <mxCell id="63" value="" style="shape=partialRectangle;html=1;whiteSpace=wrap;connectable=0;fillColor=none;top=0;left=0;bottom=0;right=0;overflow=hidden;" vertex="1" parent="62">
                    <mxGeometry width="60" height="40" as="geometry">
                        <mxRectangle width="60" height="40" as="alternateBounds"/>
                    </mxGeometry>
                </mxCell>
                <mxCell id="64" value="" style="endArrow=none;html=1;rounded=0;entryX=0.5;entryY=-0.028;entryDx=0;entryDy=0;entryPerimeter=0;startArrow=none;" edge="1" parent="1">
                    <mxGeometry width="50" height="50" relative="1" as="geometry">
                        <mxPoint x="55.21" y="-290" as="sourcePoint"/>
                        <mxPoint x="54.78999999999993" y="-210" as="targetPoint"/>
                    </mxGeometry>
                </mxCell>
                <mxCell id="65" value="" style="endArrow=none;html=1;rounded=0;entryX=0.5;entryY=-0.028;entryDx=0;entryDy=0;entryPerimeter=0;exitX=0.2;exitY=0.92;exitDx=0;exitDy=0;exitPerimeter=0;startArrow=none;" edge="1" parent="1" source="70">
                    <mxGeometry width="50" height="50" relative="1" as="geometry">
                        <mxPoint x="55.21" y="-129" as="sourcePoint"/>
                        <mxPoint x="54.78999999999993" y="-51" as="targetPoint"/>
                    </mxGeometry>
                </mxCell>
                <mxCell id="66" value="Rôle&lt;br&gt;(code)" style="ellipse;whiteSpace=wrap;html=1;direction=south;dashed=1;textDirection=ltr;labelPosition=center;verticalLabelPosition=middle;align=center;verticalAlign=middle;horizontal=0;rotation=90;" vertex="1" parent="1">
                    <mxGeometry x="15" y="-390" width="80" height="120" as="geometry"/>
                </mxCell>
                <mxCell id="67" value="" style="endArrow=classic;startArrow=classic;html=1;rounded=0;" edge="1" parent="1">
                    <mxGeometry width="50" height="50" relative="1" as="geometry">
                        <mxPoint x="14.999999999999545" y="-170.00000000000023" as="sourcePoint"/>
                        <mxPoint x="15" y="-130.00000000000023" as="targetPoint"/>
                    </mxGeometry>
                </mxCell>
                <mxCell id="68" value="&lt;span style=&quot;font-size: 11px&quot;&gt;{Simple, Modérateur}&lt;/span&gt;" style="text;html=1;align=center;verticalAlign=middle;resizable=0;points=[];autosize=1;strokeColor=none;fillColor=none;" vertex="1" parent="1">
                    <mxGeometry x="-5" y="-390" width="120" height="20" as="geometry"/>
                </mxCell>
                <mxCell id="76" value="" style="ellipse;whiteSpace=wrap;html=1;aspect=fixed;fillColor=#0066CC;strokeColor=#6c8ebf;" vertex="1" parent="1">
                    <mxGeometry x="-20" y="10" width="10" height="10" as="geometry"/>
                </mxCell>
                <mxCell id="70" value="" style="ellipse;whiteSpace=wrap;html=1;aspect=fixed;fillColor=#0066CC;strokeColor=#6c8ebf;" vertex="1" parent="1">
                    <mxGeometry x="50" y="-55" width="10" height="10" as="geometry"/>
                </mxCell>
                <mxCell id="77" value="" style="endArrow=none;html=1;rounded=0;entryX=0.5;entryY=-0.028;entryDx=0;entryDy=0;entryPerimeter=0;exitX=0.2;exitY=0.92;exitDx=0;exitDy=0;exitPerimeter=0;" edge="1" parent="1" target="70">
                    <mxGeometry width="50" height="50" relative="1" as="geometry">
                        <mxPoint x="55.210000000000036" y="-129" as="sourcePoint"/>
                        <mxPoint x="54.789999999999964" y="-51" as="targetPoint"/>
                    </mxGeometry>
                </mxCell>
                <mxCell id="78" value="" style="ellipse;whiteSpace=wrap;html=1;aspect=fixed;fillColor=#0066CC;strokeColor=#6c8ebf;" vertex="1" parent="1">
                    <mxGeometry x="5" y="35" width="10" height="10" as="geometry"/>
                </mxCell>
                <mxCell id="80" value="" style="ellipse;whiteSpace=wrap;html=1;aspect=fixed;fillColor=#0066CC;strokeColor=#6c8ebf;" vertex="1" parent="1">
                    <mxGeometry x="85" y="40" width="10" height="10" as="geometry"/>
                </mxCell>
                <mxCell id="83" value="" style="ellipse;whiteSpace=wrap;html=1;aspect=fixed;fillColor=#0066CC;strokeColor=#6c8ebf;" vertex="1" parent="1">
                    <mxGeometry x="995.5" y="-55" width="10" height="10" as="geometry"/>
                </mxCell>
                <mxCell id="84" value="" style="endArrow=none;html=1;rounded=0;" edge="1" parent="1" target="83">
                    <mxGeometry width="50" height="50" relative="1" as="geometry">
                        <mxPoint x="1000" y="-80" as="sourcePoint"/>
                        <mxPoint x="1150" y="-70.42000000000007" as="targetPoint"/>
                    </mxGeometry>
                </mxCell>
            </root>
        </mxGraphModel>
    </diagram>
</mxfile>